<svg width="217" height="42" viewBox="0 0 217 42" fill="none" xmlns="http://www.w3.org/2000/svg">
<path d="M9.11719 5.63281C10.1016 4.10156 11.2188 2.90625 12.4688 2.04688C13.7344 1.1875 14.7734 0.757812 15.5859 0.757812C16.3984 0.757812 16.8047 0.921875 16.8047 1.25C16.8047 1.375 16.6172 1.48438 16.2422 1.57812H16.1953C13.1797 2.26562 10.8125 5.25781 9.09375 10.5547C8.71875 11.7422 7.85156 15.1641 6.49219 20.8203C5.14844 26.4609 4.42188 29.4766 4.3125 29.8672L4.07812 30.7344C7.40625 30.6094 10.6719 30.5469 13.875 30.5469C14.375 30.5469 14.7578 30.8672 15.0234 31.5078C15.1016 31.7109 15.1406 31.8906 15.1406 32.0469C15.125 32.3594 14.3516 32.5234 12.8203 32.5391C11.3047 32.5547 9.10938 32.6562 6.23438 32.8438C3.35938 33.0312 1.88281 33.125 1.80469 33.125C1.24219 33.125 0.960938 32.9297 0.960938 32.5391C0.960938 32.1484 1.14062 31.3672 1.5 30.1953C1.875 29.0078 2.60938 26.1172 3.70312 21.5234L4.42969 18.5469C5.91406 12.5312 7.47656 8.22656 9.11719 5.63281ZM22.8375 20.5156C23.15 20.4688 23.8219 19.7969 24.8531 18.5C25.8844 17.2031 26.4 16.1875 26.4 15.4531C26.4 15.3438 26.3609 15.2188 26.2828 15.0781C25.9703 15.3906 25.3141 16.2812 24.3141 17.75C23.3297 19.2188 22.8375 20.1406 22.8375 20.5156ZM32.1656 24.0078C32.9469 23.1641 33.3844 23.0156 33.4781 23.5625C33.4781 23.7656 33.3531 24.1016 33.1031 24.5703C32.3375 25.9922 31.1656 27.5 29.5875 29.0938C27.0875 31.625 24.8766 32.8906 22.9547 32.8906C22.0484 32.8906 21.275 32.6328 20.6344 32.1172C19.4312 31.1328 18.8297 29.4219 18.8297 26.9844C18.8297 25.5938 19.2516 23.6406 20.0953 21.125C20.9547 18.5938 22.2672 16.3047 24.0328 14.2578C24.8141 13.2578 25.6266 12.7578 26.4703 12.7578C26.8766 12.7578 27.2984 12.8438 27.7359 13.0156C28.7672 13.4375 29.2828 14.1172 29.2828 15.0547C29.2828 15.1953 29.2359 15.4219 29.1422 15.7344C28.5016 17 27.4703 18.4609 26.0484 20.1172C24.6266 21.7734 23.1812 23.0938 21.7125 24.0781C21.2125 25.8906 20.9625 27.3047 20.9625 28.3203C20.9625 29.3359 20.9859 29.9844 21.0328 30.2656C21.1734 30.9219 21.6969 31.25 22.6031 31.25C23.5094 31.25 24.5562 30.8359 25.7437 30.0078C26.9312 29.1641 28.1969 28.0547 29.5406 26.6797C30.8844 25.3047 31.6422 24.5312 31.8141 24.3594C32.0016 24.1875 32.1187 24.0703 32.1656 24.0078ZM41.2922 13.8828L49.7062 13.6953C49.8781 13.6953 50.0656 13.8516 50.2687 14.1641C50.4719 14.4609 50.5812 14.8672 50.5969 15.3828C50.5812 15.7266 50.1359 15.9062 49.2609 15.9219C46.6672 15.9844 43.5266 16.2969 39.8391 16.8594C39.5734 17.625 39.1437 18.7266 38.55 20.1641C35.9406 26.4766 34.6359 30.9062 34.6359 33.4531C34.6359 34.7188 34.8781 35.9375 35.3625 37.1094C36.2062 39.0781 37.4641 40.0625 39.1359 40.0625C40.4328 40.0625 41.5187 39.7266 42.3937 39.0547C43.2844 38.3984 44.3312 37.3125 45.5344 35.7969C45.9094 35.3125 46.3 35.1406 46.7062 35.2812C47.0969 35.4531 47.2922 35.7891 47.2922 36.2891C47.2922 37.7266 46.4641 38.9219 44.8078 39.875C43.1516 40.8438 41.3703 41.3281 39.4641 41.3281C37.5734 41.3281 35.9328 40.6328 34.5422 39.2422C33.1672 37.8516 32.4797 36 32.4797 33.6875C32.4797 32.1406 32.675 30.4844 33.0656 28.7188C33.4562 26.9531 34.1672 24.7578 35.1984 22.1328C36.2297 19.4922 36.9016 17.7344 37.2141 16.8594C33.9797 16.8594 32.175 16.8203 31.8 16.7422C30.6437 16.4922 30.0578 16 30.0422 15.2656C30.0578 15.0312 30.2375 14.8828 30.5812 14.8203L38.1984 14.1875L43.2141 5.75C43.7922 4.78125 44.3156 4.29688 44.7844 4.29688C44.9719 4.29688 45.1906 4.32812 45.4406 4.39062C46.3625 4.59375 46.8234 4.92969 46.8234 5.39844C46.8234 5.85156 46.3547 6.55469 45.4172 7.50781C44.4797 8.46094 43.9016 9.07031 43.6828 9.33594C42.9484 10.2422 42.1516 11.7578 41.2922 13.8828ZM51.0281 13.2969C51.5594 12.5781 52.0906 10.9141 52.6219 8.30469C52.7313 7.77344 52.9188 7.51562 53.1844 7.53125C53.575 7.53125 53.9422 7.72656 54.2859 8.11719C54.6453 8.49219 54.825 8.84375 54.825 9.17188C54.825 9.96875 54.0672 11.375 52.5516 13.3906C52.0516 14.0625 51.6063 14.5859 51.2156 14.9609C50.825 15.3359 50.4969 15.5312 50.2313 15.5469C49.9813 15.5469 49.7703 15.4688 49.5984 15.3125C49.4422 15.1562 49.3641 15.0391 49.3641 14.9609C49.3641 14.8828 49.4109 14.8125 49.5047 14.75C50.1297 14.4219 50.6375 13.9375 51.0281 13.2969ZM70.3969 15.6172C70.3969 17.8828 69.7719 19.0469 68.5219 19.1094C68.2094 19.1094 67.9125 19.0312 67.6312 18.875C67.7562 21.625 67.8187 24.3047 67.8187 26.9141C67.8187 29.5234 67.3266 31.375 66.3422 32.4688C65.7797 33.0938 65.0531 33.4062 64.1625 33.4062C63.2875 33.4219 62.6234 33.1172 62.1703 32.4922C61.7172 31.8828 61.4906 31.2812 61.4906 30.6875C61.5219 29.9531 61.9906 29.5781 62.8969 29.5625C63.475 29.5625 63.725 29.9609 63.6469 30.7578C63.5687 31.5547 63.7562 31.9531 64.2094 31.9531C65.0531 31.9531 65.5687 30.8828 65.7562 28.7422C65.85 27.7578 65.8891 26.3906 65.8734 24.6406C65.8734 22.8906 65.7328 22.0078 65.4516 21.9922C65.3266 21.9922 65.1547 22.2031 64.9359 22.625C64.7172 23.0312 64.1859 23.875 63.3422 25.1562C62.5141 26.4375 61.7953 27.3906 61.1859 28.0156C60.5766 28.6406 60.1781 28.9844 59.9906 29.0469C59.5531 29.2031 59.3031 29.0625 59.2406 28.625C59.2562 28.1562 59.4984 27.6094 59.9672 26.9844C61.6547 24.75 63.2797 22.1719 64.8422 19.25C65.2016 18.5781 65.3812 18.1875 65.3812 18.0781V14.7031C65.3812 14.0625 65.6937 13.5703 66.3187 13.2266C66.5844 13.0859 66.8344 13.0156 67.0687 13.0156C68.0375 13.0312 68.9359 13.3203 69.7641 13.8828C70.1547 14.1641 70.3578 14.4766 70.3734 14.8203C70.3891 15.1641 70.3969 15.4297 70.3969 15.6172ZM67.4437 17.1875C67.975 17.0938 68.2797 16.9141 68.3578 16.6484C68.4516 16.3672 68.4984 16.0938 68.4984 15.8281C68.4984 15.5469 68.4828 15.3359 68.4516 15.1953C67.9828 15.1953 67.6625 15.5234 67.4906 16.1797C67.4281 16.3984 67.3969 16.6016 67.3969 16.7891C67.3969 16.9766 67.4125 17.1094 67.4437 17.1875ZM94.5797 13.5547C96.5797 13.5547 97.5797 14.2031 97.5797 15.5C97.5172 16.1719 96.9781 17.5938 95.9625 19.7656C94.9469 21.9219 94.1969 23 93.7125 23C93.4781 22.9531 93.3297 22.8281 93.2672 22.625C93.2672 22.5 93.3453 22.3516 93.5016 22.1797C93.6578 22.0078 93.8453 21.6953 94.0641 21.2422C94.7516 19.8672 95.0953 18.7109 95.0953 17.7734C95.0953 16.8359 94.9625 16.1797 94.6969 15.8047C94.275 15.8203 93.7828 16.25 93.2203 17.0938C92.2047 18.6719 91.3219 20.7344 90.5719 23.2812C89.8375 25.8281 89.4703 27.8438 89.4703 29.3281C89.4703 29.625 89.4781 29.8594 89.4938 30.0312C89.5563 31.0938 90.0016 31.625 90.8297 31.625C93.3297 31.625 96.7125 29.4531 100.978 25.1094C101.838 24.25 102.314 24.0625 102.408 24.5469C102.408 24.8125 102.252 25.2031 101.939 25.7188C101.127 27.0625 99.8688 28.4766 98.1656 29.9609C95.65 32.1641 93.4938 33.2656 91.6969 33.2656C90.5094 33.25 89.5563 32.8047 88.8375 31.9297C88.1188 31.0703 87.6656 30.2031 87.4781 29.3281C87.025 27.2188 87.2984 25.0859 88.2984 22.9297C88.3297 22.8672 88.4859 22.5312 88.7672 21.9219C90.4234 18.25 91.9469 15.6328 93.3375 14.0703C93.65 13.7422 94.0641 13.5703 94.5797 13.5547ZM111.511 14.4219C112.323 14.4219 113.402 14.2109 114.745 13.7891C116.105 13.3672 117.042 13.1797 117.558 13.2266C118.089 13.2734 118.441 13.4844 118.613 13.8594C118.8 14.2344 118.777 14.6016 118.542 14.9609C118.308 15.3047 117.808 15.5 117.042 15.5469H113.363C112.613 15.5469 112.136 15.7891 111.933 16.2734C111.902 16.3047 111.753 17.1094 111.488 18.6875C111.238 20.2656 111.089 21.1641 111.042 21.3828C110.277 25.1172 109.214 27.9609 107.855 29.9141L107.831 29.9375C106.425 31.9688 105.308 32.9844 104.48 32.9844C103.448 32.9375 102.894 32.2344 102.816 30.875C102.894 29.125 103.652 26.0469 105.089 21.6406C106.527 17.2188 107.722 14.375 108.675 13.1094C108.941 12.75 109.238 12.5703 109.566 12.5703C109.909 12.5703 110.128 12.5781 110.222 12.5938C110.534 12.6562 110.691 12.9766 110.691 13.5547C110.706 14.1172 110.98 14.4062 111.511 14.4219ZM109.87 15.5469C109.214 15.5469 108.261 17.5 107.011 21.4062C105.761 25.3125 105.12 27.5547 105.089 28.1328C105.073 28.6953 105.128 28.9766 105.253 28.9766C105.831 28.9766 106.831 27.5703 108.253 24.7578C109.675 21.9297 110.386 19.5078 110.386 17.4922C110.308 16.3047 110.136 15.6562 109.87 15.5469ZM133.059 23.2344C133.059 24.0156 132.169 25.4531 130.387 27.5469C128.606 29.6406 127.27 31.0234 126.38 31.6953C125.505 32.3516 124.622 32.6797 123.731 32.6797C122.075 32.6641 121.247 31.3516 121.247 28.7422C121.247 27.5078 121.497 25.5781 121.997 22.9531C122.497 20.3125 122.762 18.875 122.794 18.6406C121.137 19.1875 119.552 21.2656 118.036 24.875C117.723 25.6406 117.223 26.9453 116.536 28.7891C115.864 30.6172 115.387 31.7031 115.106 32.0469C114.762 32.4531 114.309 32.6562 113.747 32.6562C113.184 32.6562 112.895 32.4531 112.88 32.0469C112.88 31.2969 115.387 25.0781 120.403 13.3906C121.184 11.5469 121.637 10.5156 121.762 10.2969C122.028 9.78125 122.583 9.80469 123.427 10.3672C123.677 10.5391 123.802 10.7109 123.802 10.8828C123.817 11.0547 123.7 11.3281 123.45 11.7031C122.872 12.6094 122.356 13.6641 121.903 14.8672L121.012 17.1875L121.762 16.2734C122.434 15.4453 122.973 14.8203 123.38 14.3984C123.786 13.9609 124.122 13.7188 124.387 13.6719C124.669 13.6094 124.958 13.5781 125.255 13.5781C125.895 13.625 126.231 13.9688 126.262 14.6094C126.262 14.9219 126.153 15.3438 125.934 15.875C124.95 18.1406 124.192 21.5703 123.661 26.1641C123.52 27.4766 123.45 28.6328 123.45 29.6328C123.466 30.6172 123.708 31.1172 124.177 31.1328C124.833 31.1328 126.028 30.1172 127.762 28.0859C129.497 26.0391 130.747 24.3438 131.512 23C131.716 22.6719 132.005 22.5 132.38 22.4844C132.77 22.5781 132.997 22.8281 133.059 23.2344ZM150.319 23.2344C150.319 24.0156 149.428 25.4531 147.647 27.5469C145.866 29.6406 144.53 31.0234 143.639 31.6953C142.764 32.3516 141.881 32.6797 140.991 32.6797C139.334 32.6641 138.506 31.3516 138.506 28.7422C138.506 27.5078 138.756 25.5781 139.256 22.9531C139.756 20.3125 140.022 18.875 140.053 18.6406C138.397 19.1875 136.811 21.2656 135.295 24.875C134.983 25.6406 134.483 26.9453 133.795 28.7891C133.123 30.6172 132.647 31.7031 132.366 32.0469C132.022 32.4531 131.569 32.6562 131.006 32.6562C130.444 32.6562 130.155 32.4531 130.139 32.0469C130.139 31.2969 132.647 25.0781 137.663 13.3906C138.444 11.5469 138.897 10.5156 139.022 10.2969C139.288 9.78125 139.842 9.80469 140.686 10.3672C140.936 10.5391 141.061 10.7109 141.061 10.8828C141.077 11.0547 140.959 11.3281 140.709 11.7031C140.131 12.6094 139.616 13.6641 139.163 14.8672L138.272 17.1875L139.022 16.2734C139.694 15.4453 140.233 14.8203 140.639 14.3984C141.045 13.9609 141.381 13.7188 141.647 13.6719C141.928 13.6094 142.217 13.5781 142.514 13.5781C143.155 13.625 143.491 13.9688 143.522 14.6094C143.522 14.9219 143.413 15.3438 143.194 15.875C142.209 18.1406 141.452 21.5703 140.92 26.1641C140.78 27.4766 140.709 28.6328 140.709 29.6328C140.725 30.6172 140.967 31.1172 141.436 31.1328C142.092 31.1328 143.288 30.1172 145.022 28.0859C146.756 26.0391 148.006 24.3438 148.772 23C148.975 22.6719 149.264 22.5 149.639 22.4844C150.03 22.5781 150.256 22.8281 150.319 23.2344ZM154.594 20.5156C154.906 20.4688 155.578 19.7969 156.609 18.5C157.641 17.2031 158.156 16.1875 158.156 15.4531C158.156 15.3438 158.117 15.2188 158.039 15.0781C157.727 15.3906 157.07 16.2812 156.07 17.75C155.086 19.2188 154.594 20.1406 154.594 20.5156ZM163.922 24.0078C164.703 23.1641 165.141 23.0156 165.234 23.5625C165.234 23.7656 165.109 24.1016 164.859 24.5703C164.094 25.9922 162.922 27.5 161.344 29.0938C158.844 31.625 156.633 32.8906 154.711 32.8906C153.805 32.8906 153.031 32.6328 152.391 32.1172C151.188 31.1328 150.586 29.4219 150.586 26.9844C150.586 25.5938 151.008 23.6406 151.852 21.125C152.711 18.5938 154.023 16.3047 155.789 14.2578C156.57 13.2578 157.383 12.7578 158.227 12.7578C158.633 12.7578 159.055 12.8438 159.492 13.0156C160.523 13.4375 161.039 14.1172 161.039 15.0547C161.039 15.1953 160.992 15.4219 160.898 15.7344C160.258 17 159.227 18.4609 157.805 20.1172C156.383 21.7734 154.938 23.0938 153.469 24.0781C152.969 25.8906 152.719 27.3047 152.719 28.3203C152.719 29.3359 152.742 29.9844 152.789 30.2656C152.93 30.9219 153.453 31.25 154.359 31.25C155.266 31.25 156.312 30.8359 157.5 30.0078C158.688 29.1641 159.953 28.0547 161.297 26.6797C162.641 25.3047 163.398 24.5312 163.57 24.3594C163.758 24.1875 163.875 24.0703 163.922 24.0078ZM172.908 13.5547C174.908 13.5547 175.908 14.2031 175.908 15.5C175.845 16.1719 175.306 17.5938 174.291 19.7656C173.275 21.9219 172.525 23 172.041 23C171.806 22.9531 171.658 22.8281 171.595 22.625C171.595 22.5 171.673 22.3516 171.83 22.1797C171.986 22.0078 172.173 21.6953 172.392 21.2422C173.08 19.8672 173.423 18.7109 173.423 17.7734C173.423 16.8359 173.291 16.1797 173.025 15.8047C172.603 15.8203 172.111 16.25 171.548 17.0938C170.533 18.6719 169.65 20.7344 168.9 23.2812C168.166 25.8281 167.798 27.8438 167.798 29.3281C167.798 29.625 167.806 29.8594 167.822 30.0312C167.884 31.0938 168.33 31.625 169.158 31.625C171.658 31.625 175.041 29.4531 179.306 25.1094C180.166 24.25 180.642 24.0625 180.736 24.5469C180.736 24.8125 180.58 25.2031 180.267 25.7188C179.455 27.0625 178.197 28.4766 176.494 29.9609C173.978 32.1641 171.822 33.2656 170.025 33.2656C168.837 33.25 167.884 32.8047 167.166 31.9297C166.447 31.0703 165.994 30.2031 165.806 29.3281C165.353 27.2188 165.627 25.0859 166.627 22.9297C166.658 22.8672 166.814 22.5312 167.095 21.9219C168.752 18.25 170.275 15.6328 171.666 14.0703C171.978 13.7422 172.392 13.5703 172.908 13.5547ZM189.37 13.8828L197.784 13.6953C197.956 13.6953 198.144 13.8516 198.347 14.1641C198.55 14.4609 198.659 14.8672 198.675 15.3828C198.659 15.7266 198.214 15.9062 197.339 15.9219C194.745 15.9844 191.605 16.2969 187.917 16.8594C187.652 17.625 187.222 18.7266 186.628 20.1641C184.019 26.4766 182.714 30.9062 182.714 33.4531C182.714 34.7188 182.956 35.9375 183.441 37.1094C184.284 39.0781 185.542 40.0625 187.214 40.0625C188.511 40.0625 189.597 39.7266 190.472 39.0547C191.363 38.3984 192.409 37.3125 193.613 35.7969C193.988 35.3125 194.378 35.1406 194.784 35.2812C195.175 35.4531 195.37 35.7891 195.37 36.2891C195.37 37.7266 194.542 38.9219 192.886 39.875C191.23 40.8438 189.448 41.3281 187.542 41.3281C185.652 41.3281 184.011 40.6328 182.62 39.2422C181.245 37.8516 180.558 36 180.558 33.6875C180.558 32.1406 180.753 30.4844 181.144 28.7188C181.534 26.9531 182.245 24.7578 183.277 22.1328C184.308 19.4922 184.98 17.7344 185.292 16.8594C182.058 16.8594 180.253 16.8203 179.878 16.7422C178.722 16.4922 178.136 16 178.12 15.2656C178.136 15.0312 178.316 14.8828 178.659 14.8203L186.277 14.1875L191.292 5.75C191.87 4.78125 192.394 4.29688 192.863 4.29688C193.05 4.29688 193.269 4.32812 193.519 4.39062C194.441 4.59375 194.902 4.92969 194.902 5.39844C194.902 5.85156 194.433 6.55469 193.495 7.50781C192.558 8.46094 191.98 9.07031 191.761 9.33594C191.027 10.2422 190.23 11.7578 189.37 13.8828ZM215.311 8.60938C216.264 8.60938 216.741 8.95312 216.741 9.64062C216.741 9.76562 216.623 10.3594 216.389 11.4219C216.155 12.4688 215.913 14.0312 215.663 16.1094C215.194 19.9219 214.514 22.7812 213.623 24.6875C213.405 25.0781 213.084 25.2812 212.663 25.2969C212.241 25.2969 211.998 25.0938 211.936 24.6875C211.936 24.625 211.928 24.4844 211.913 24.2656C211.913 24.0469 211.983 23.625 212.123 23C212.358 21.9531 212.748 19.8672 213.295 16.7422C213.842 13.6016 214.186 11.7344 214.327 11.1406C214.483 10.5312 214.616 9.97656 214.725 9.47656C214.834 8.96094 215.03 8.67188 215.311 8.60938ZM212.1 29.1172C213.038 29.1172 213.506 29.6016 213.506 30.5703C213.506 30.7891 213.467 31 213.389 31.2031C213.139 31.7812 212.717 32.0703 212.123 32.0703C211.545 32.0703 211.045 31.9219 210.623 31.625C210.202 31.3281 209.991 30.9531 209.991 30.5C209.991 30.0312 210.069 29.6094 210.225 29.2344C210.397 28.8438 210.545 28.5156 210.67 28.25C210.733 28.5 210.827 28.7109 210.952 28.8828C211.077 29.0391 211.459 29.1172 212.1 29.1172Z" fill="black"/>
</svg>
